<svg width="1200" height="760" viewBox="0 0 1200 760" xmlns="http://www.w3.org/2000/svg" role="img" aria-labelledby="title desc">
  <title id="title">Boligportaler</title>
  <desc id="desc">Cover om annonser, portaler og reell tilgjengelighet.</desc>
  <rect width="1200" height="760" fill="#eef3ef"/>
  <path d="M0 420 C230 350 360 400 560 330 C815 240 980 300 1200 225 V760 H0 Z" fill="#75949b"/>
  <path d="M0 550 C230 505 440 568 660 520 C870 474 1030 512 1200 480 V760 H0 Z" fill="#e7d2a0"/>
  <g transform="translate(700 165)">
    <rect x="0" y="0" width="330" height="235" rx="20" fill="#ffffff" opacity="0.95"/>
    <rect x="38" y="44" width="118" height="78" rx="8" fill="#dbe8ea"/>
    <rect x="178" y="44" width="118" height="78" rx="8" fill="#dbe8ea"/>
    <rect x="38" y="148" width="258" height="18" rx="9" fill="#9aa8b0"/>
    <rect x="38" y="188" width="180" height="18" rx="9" fill="#9aa8b0"/>
    <path d="M274 196 L340 260" stroke="#16222b" stroke-width="18" stroke-linecap="round"/>
    <circle cx="252" cy="174" r="58" fill="none" stroke="#c5a059" stroke-width="16"/>
  </g>
  <rect x="72" y="86" width="520" height="312" rx="10" fill="#16222b" opacity="0.94"/>
  <text x="112" y="146" fill="#c5a059" font-family="Arial, sans-serif" font-size="24" font-weight="800" letter-spacing="5">MARKEDSSOK</text>
  <text x="112" y="230" fill="#ffffff" font-family="Georgia, serif" font-size="76" font-weight="700">Bolig-</text>
  <text x="112" y="310" fill="#ffffff" font-family="Georgia, serif" font-size="76" font-weight="700">portaler</text>
  <text x="112" y="354" fill="#edf3ef" font-family="Arial, sans-serif" font-size="28" font-weight="700">Hva viser de egentlig?</text>
</svg>
