<svg width="1200" height="760" viewBox="0 0 1200 760" xmlns="http://www.w3.org/2000/svg" role="img" aria-labelledby="title desc">
  <title id="title">Tomt og bygg</title>
  <desc id="desc">Cover med moderne bolig, tomt og fjellandskap.</desc>
  <defs>
    <linearGradient id="bg" x1="0" y1="0" x2="1" y2="1">
      <stop offset="0" stop-color="#b9d8d0"/>
      <stop offset="0.55" stop-color="#eff2e8"/>
      <stop offset="1" stop-color="#d5bd83"/>
    </linearGradient>
    <filter id="shadow" x="-20%" y="-20%" width="140%" height="140%">
      <feDropShadow dx="0" dy="20" stdDeviation="24" flood-color="#16222b" flood-opacity="0.22"/>
    </filter>
  </defs>
  <rect width="1200" height="760" fill="url(#bg)"/>
  <path d="M0 360 L220 190 L410 330 L612 142 L830 360 L1015 222 L1200 346 V760 H0 Z" fill="#7d9087"/>
  <path d="M0 500 C260 430 492 502 726 430 C940 365 1060 410 1200 380 V760 H0 Z" fill="#d8c997"/>
  <g filter="url(#shadow)">
    <rect x="645" y="348" width="330" height="185" rx="6" fill="#ffffff"/>
    <path d="M610 352 L814 230 L1018 352 Z" fill="#16222b"/>
    <rect x="705" y="402" width="78" height="132" fill="#d8e8ed"/>
    <rect x="835" y="402" width="94" height="78" fill="#d8e8ed"/>
    <rect x="560" y="536" width="510" height="18" fill="#c5a059"/>
  </g>
  <rect x="70" y="76" width="500" height="304" rx="10" fill="#16222b" opacity="0.94"/>
  <text x="110" y="136" fill="#c5a059" font-family="Arial, sans-serif" font-size="24" font-weight="800" letter-spacing="5">KJOPERGUIDE</text>
  <text x="110" y="218" fill="#ffffff" font-family="Georgia, serif" font-size="76" font-weight="700">Tomt og</text>
  <text x="110" y="298" fill="#ffffff" font-family="Georgia, serif" font-size="76" font-weight="700">bygg</text>
  <text x="110" y="346" fill="#edf3ef" font-family="Arial, sans-serif" font-size="28" font-weight="700">Regulering, vann og lisens</text>
</svg>
